<?xml version="1.0" encoding="UTF-8"?>
<svg xmlns="http://www.w3.org/2000/svg" version="1.1" viewBox="0 0 800 800">
	<defs>
		<style>
			.cls-1 {
				fill: white;
			}
		</style>
	</defs>
	<path class="cls-1"
		d="M270.1,504c75.5,60.1,166.8,26.9,145.3-26.9-108.1-40.3-151.2-175.7-104.1-226.6,47.1-50.9,145.4.9,92.9-39.7-52.5-40.6-143.8-7.4-179.5,53.2-35.6,60.7-30.1,179.9,45.4,240Z" />
	<path class="cls-1"
		d="M501.8,435.7c86.4-41.3,79.1-181.8,23.4-209.3-55.7-27.5-89.9-1.2-53.6,49.3,47.7,60.2-46.7,134.2-90.9,116.5,0,0,34.8,84.8,121.2,43.5Z" />
	<path class="cls-1"
		d="M433.1,177.6c71.8-10.2,114.8,12.8,144.5,61.6,34-54.1-7.4-168.3-122-210.2C340.9-12.8,191.3,117.1,224.4,208.4c19.5-23,115.3-74.5,208.7-30.8Z" />
	<path class="cls-1"
		d="M29,639.2c28,20,132.7,53.2,222.7,82.2,90,29,181.2-32,177.4-130-273-18.2-272.5-219.2-258-278.1-117.7-1-155.8,105.2-147.8,178.9,8.6,78.4-23.8,125.9,5.7,147Z" />
	<path class="cls-1"
		d="M58.9,309c54.6-24.8,90.6-16,90.6-16,0,0,13.7-41.7,32.4-61.4-4.9-8.2-5.1-35.9-5.1-35.9,0,0,.6-31.1,6.2-54-46.7-21.8-147,19.6-152.7,28.6-5.6,9-13.2,125.1,28.5,138.7Z" />
	<path class="cls-1"
		d="M766.1,347.7c-28.5-138.7-146.2-139.8-146.2-139.8,0,0-1.4,34.3-19.4,50.8,47.9,88-34.2,225.1-95.2,228.7,175.6,133.1,261.3-28.6,274.3-53.2,13-24.6-8.4-50.6-13.5-86.5Z" />
	<path class="cls-1"
		d="M660.5,574.7c-39.4,15.6-133-14-180.6-55.7-3.1,22.3-33.5,51.9-44.9,51.4,37.2,27.6,57.8,113.5-31.8,177.2,21.4,35.3,142.4,41.8,220.7,14.7,12.7-4.4,47.5-71.6,62-112,19.2-53.5,36-99.9-25.5-75.6Z" />
	<path class="cls-1"
		d="M366.9,259.4c-50.1,15.5-42,96.1,14.2,102.9,80.6-8.1,64.4-83.7,44.2-86.3-20.2-2.6,3.5,42.4-22.1,43.2-30.3.8-43.4-20.6-28-36.9,12.5-13.2,15.5-29.2-8.3-22.8Z" />

</svg>
